<svg xmlns="http://www.w3.org/2000/svg" width="62.675" height="17.319" viewBox="0 0 62.675 17.319">
  <g id="logo_advil" transform="translate(-1052.831 -665.293)">
    <path id="패스_4099" data-name="패스 4099" d="M1063.524,665.957l7.4,14.077a2.315,2.315,0,0,0,1.639,1.4,4.713,4.713,0,0,0,1,.052c.336,0,.326.6.014.6-1.348,0-3.829-.117-5.13-.117-2.674,0-5.122.152-5.286.11a.3.3,0,0,1-.059-.568,12.43,12.43,0,0,0,1.566-.2c.379-.164.647-.43.625-.736-.018-.243-1.293-2.485-1.539-2.958h-5.2a4.859,4.859,0,0,0-.706,2.1c0,.441.238.915,1.047,1.432.751.479,1.364.206,1.5.508a.3.3,0,0,1-.293.418c-.943,0-2.76-.164-3.7-.164-.822,0-2.589.156-3.407.156-.146,0-.383-.494.182-.581a5.543,5.543,0,0,0,3.375-2.232l6.7-13.309s.1-.187.256.007m-4.5,10.707h4.176l-2.08-4.135Z" transform="translate(0 -0.111)" fill="#162a44"/>
    <path id="패스_4100" data-name="패스 4100" d="M1098.184,682.488l-5.351-8.677a2.428,2.428,0,0,0-2.04-1.629l-.017.86,0,6.718a1.182,1.182,0,0,0,.519,1.083c.378.161.824-.082.848.244.007.11-.063.352-.21.372-3.248.509-5.43,1.04-5.523,1.064-.244.061-.468-.06-.474-.532a7.185,7.185,0,0,1,.006-.76,6.183,6.183,0,0,1-3.813,1.232c-3.544,0-5.417-2.372-5.417-5.156a6.5,6.5,0,0,1,6.275-6.039,8.986,8.986,0,0,1,2.9.165l-.01-2.288c0-.736-.19-1.068-1.16-1.473-.291-.12-.9,0-.992-.331-.106-.388.594-.365,1.113-.464,1.781-.335,5.54-1.459,5.731-1.459.073,0,.242.089.242.221,0,1.084-.034,1.089-.034,4.313l.015,1.4c.988,0,3.476.166,4.462.166,1.035,0,2.073-.038,3.2-.067.665-.015.731.085.731.35,0,.34-1.594.172-1.343.7.168.355,2.57,4.238,2.594,4.2.173-.229,1.562-2.653,1.864-3.186.283-.5.062-.98-.64-1.349a3.036,3.036,0,0,0-.833-.156c-.266-.022-.3-.578.2-.565.652.019,1.227.032,1.974.032.7,0,1.539.03,2.442-.032.467-.029.439.226.4.352-.1.323-.581.237-1,.447-.506.253-.837.49-1.5,1.565l-4.888,8.668c-.078.218-.167.2-.263.009m-12.3-7.625c0-2.86-1.376-2.677-2.146-2.677-2.359,0-2.206,2.8-2.206,4.521,0,1.614.535,4.079,2.677,4.079,1.223,0,1.672-.581,1.672-1.072Z" transform="translate(-4.624 -0.024)" fill="#162a44"/>
    <path id="패스_4101" data-name="패스 4101" d="M1113.074,676.521a2.072,2.072,0,0,0-.489-1.7c-.211-.28-.935-.336-.969-.582a.432.432,0,0,1,.235-.319,47.991,47.991,0,0,0,5.651-1.429c.307,0,.507.114.522.6.006.175-.022,1.265-.022,3.384l-.02,5.124c0,.818.094.969.19,1.036.435.306.763.047.825.327.043.2-.052.391-.343.391-1.073,0-2.2-.1-3.261-.1-1.035,0-2.281.132-3.241.113-.431-.009-.426-.523-.112-.543.514-.033.647-.081.8-.2.093-.071.232-.2.232-1.016Z" transform="translate(-11.381 -1.394)" fill="#162a44"/>
    <path id="패스_4102" data-name="패스 4102" d="M1122.391,669.3a2,2,0,0,0-.527-1.67c-.214-.284-.859-.348-.948-.574s.177-.338.251-.353c3.246-.583,5.772-1.4,5.895-1.4a.618.618,0,0,1,.521.594c.022.175.007,1.245.007,3.366v10.923c0,.818.162.919.25,1,.238.206.594.167.731.292.236.216.081.515-.3.5-1.075-.036-2.384-.114-3.447-.114-1.034,0-2.4.133-3.359.114a.269.269,0,1,1-.027-.536c.665-.072.623-.209.735-.289.094-.069.222-.285.214-1Z" transform="translate(-13.178)" fill="#162a44"/>
    <path id="패스_4103" data-name="패스 4103" d="M1115.848,670.365a2.473,2.473,0,1,0-2.933-2.429,2.716,2.716,0,0,0,2.933,2.429" transform="translate(-11.632 -0.041)" fill="#162a44"/>
  </g>
</svg>
