<svg xmlns="http://www.w3.org/2000/svg" width="84.244" height="38.831" viewBox="0 0 84.244 38.831">
  <g id="그룹_303" data-name="그룹 303" transform="translate(-1068.45 -1130.012)">
    <path id="패스_1207" data-name="패스 1207" d="M144.9,366.892h63.377a10.326,10.326,0,0,0,10.165-9.565l.814-13a8.878,8.878,0,0,0-8.966-9.565H146.914a10.326,10.326,0,0,0-10.165,9.565l-.814,13a8.878,8.878,0,0,0,8.966,9.565" transform="translate(933.417 795.251)" fill="#fdcd00"/>
    <path id="패스_1208" data-name="패스 1208" d="M184.855,350.306l-.9,14.338a1.822,1.822,0,0,0,2.768,1.672l11.738-6.445Z" transform="translate(884.498 802.272)" fill="#fdcd00"/>
    <path id="패스_1209" data-name="패스 1209" d="M175.817,346.413a1.881,1.881,0,1,1-1.88-1.88,1.88,1.88,0,0,1,1.88,1.88" transform="translate(924.413 799.665)" fill="#eff8fe"/>
    <path id="패스_1210" data-name="패스 1210" d="M166.557,346.413a1.881,1.881,0,1,1-1.88-1.88,1.88,1.88,0,0,1,1.88,1.88" transform="translate(947.115 799.665)" fill="#eff8fe"/>
    <path id="패스_1211" data-name="패스 1211" d="M157.3,346.413a1.881,1.881,0,1,1-1.88-1.88,1.88,1.88,0,0,1,1.88,1.88" transform="translate(969.815 799.665)" fill="#eff8fe"/>
  </g>
</svg>
