<svg xmlns="http://www.w3.org/2000/svg" width="26.743" height="26.743" viewBox="0 0 26.743 26.743">
  <g id="그룹_304" data-name="그룹 304" transform="translate(-1202.161 -1098.811)">
    <path id="패스_1212" data-name="패스 1212" d="M84.758,320.812a13.368,13.368,0,1,0,17.859-6.2,13.369,13.369,0,0,0-17.859,6.2" transform="translate(1118.743 785.543)" fill="#fdcd00"/>
    <path id="패스_1213" data-name="패스 1213" d="M88.784,322.858l14.081,4.49a.432.432,0,0,1,.164.73,8.966,8.966,0,0,1-14.8-4.718.434.434,0,0,1,.556-.5" transform="translate(1118.765 789.865)" fill="#fff"/>
    <path id="패스_1214" data-name="패스 1214" d="M88.093,322.224a4.77,4.77,0,0,0-.527,1.831,1.162,1.162,0,0,0,2.186.505,4.873,4.873,0,0,0,.555-1.748,1.159,1.159,0,0,0-2.214-.588" transform="translate(1132.569 789.277)" fill="#fff"/>
    <path id="패스_1215" data-name="패스 1215" d="M95.572,319.826a4.769,4.769,0,0,0-.527,1.83,1.162,1.162,0,0,0,2.186.505,4.874,4.874,0,0,0,.555-1.748,1.159,1.159,0,0,0-2.214-.588" transform="translate(1114.233 788.194)" fill="#fff"/>
  </g>
</svg>
