<svg xmlns="http://www.w3.org/2000/svg" width="27.927" height="38.11" viewBox="0 0 27.927 38.11">
  <path id="패스_1206" data-name="패스 1206" d="M334.711,349.1c1.606,9.1,6.682,16.188,13.058,18.108a.543.543,0,0,1,0,1.032c-6.374,1.915-11.451,8.984-13.056,18.084a.542.542,0,0,1-1.066,0c-1.606-9.1-6.682-16.169-13.056-18.084a.543.543,0,0,1,0-1.032c6.376-1.921,11.451-9,13.058-18.108a.542.542,0,0,1,1.066,0m0,0c1.606,9.1,6.682,16.188,13.058,18.108a.543.543,0,0,1,0,1.032c-6.374,1.915-11.451,8.984-13.056,18.084a.542.542,0,0,1-1.066,0c-1.606-9.1-6.682-16.169-13.056-18.084a.543.543,0,0,1,0-1.032c6.376-1.921,11.451-9,13.058-18.108a.542.542,0,0,1,1.066,0m0,0c1.606,9.1,6.682,16.188,13.058,18.108a.543.543,0,0,1,0,1.032c-6.374,1.915-11.451,8.984-13.056,18.084a.542.542,0,0,1-1.066,0c-1.606-9.1-6.682-16.169-13.056-18.084a.543.543,0,0,1,0-1.032c6.376-1.921,11.451-9,13.058-18.108a.542.542,0,0,1,1.066,0m0,0c1.606,9.1,6.682,16.188,13.058,18.108a.543.543,0,0,1,0,1.032c-6.374,1.915-11.451,8.984-13.056,18.084a.542.542,0,0,1-1.066,0c-1.606-9.1-6.682-16.169-13.056-18.084a.543.543,0,0,1,0-1.032c6.376-1.921,11.451-9,13.058-18.108a.542.542,0,0,1,1.066,0m0,0c1.606,9.1,6.682,16.188,13.058,18.108a.543.543,0,0,1,0,1.032c-6.374,1.915-11.451,8.984-13.056,18.084a.542.542,0,0,1-1.066,0c-1.606-9.1-6.682-16.169-13.056-18.084a.543.543,0,0,1,0-1.032c6.376-1.921,11.451-9,13.058-18.108a.542.542,0,0,1,1.066,0m0,0c1.606,9.1,6.682,16.188,13.058,18.108a.543.543,0,0,1,0,1.032c-6.374,1.915-11.451,8.984-13.056,18.084a.542.542,0,0,1-1.066,0c-1.606-9.1-6.682-16.169-13.056-18.084a.543.543,0,0,1,0-1.032c6.376-1.921,11.451-9,13.058-18.108a.542.542,0,0,1,1.066,0" transform="translate(-320.214 -348.655)" fill="#fdcd00"/>
</svg>
